<mxfile host="www.draw.io" modified="2020-03-03T08:28:04.904Z" agent="Mozilla/5.0 (Windows NT 10.0; WOW64) AppleWebKit/537.36 (KHTML, like Gecko) Chrome/80.0.3987.122 Safari/537.36" etag="VhpORFiZ__eBHKa2k2C9" version="12.7.9" type="github">
  <diagram id="rRDtjGo991zdDTh0Xtz2" name="第 1 页">
    <mxGraphModel dx="1662" dy="1931" grid="1" gridSize="10" guides="1" tooltips="1" connect="1" arrows="1" fold="1" page="1" pageScale="1" pageWidth="1654" pageHeight="1169" math="0" shadow="0">
      <root>
        <mxCell id="0" />
        <mxCell id="1" parent="0" />
        <mxCell id="G6KSM5mu3qOo3AbOEJN1-5" style="edgeStyle=orthogonalEdgeStyle;rounded=0;orthogonalLoop=1;jettySize=auto;html=1;exitX=1;exitY=0.25;exitDx=0;exitDy=0;curved=1;entryX=0;entryY=0.3;entryDx=0;entryDy=0;" edge="1" parent="1" source="G6KSM5mu3qOo3AbOEJN1-1" target="G6KSM5mu3qOo3AbOEJN1-2">
          <mxGeometry relative="1" as="geometry">
            <mxPoint x="780" y="80" as="targetPoint" />
          </mxGeometry>
        </mxCell>
        <mxCell id="G6KSM5mu3qOo3AbOEJN1-1" value="pc_c5" style="rounded=0;whiteSpace=wrap;html=1;" vertex="1" parent="1">
          <mxGeometry x="580" y="-20" width="120" height="60" as="geometry" />
        </mxCell>
        <mxCell id="G6KSM5mu3qOo3AbOEJN1-6" style="edgeStyle=orthogonalEdgeStyle;rounded=0;orthogonalLoop=1;jettySize=auto;html=1;curved=1;entryX=1;entryY=0.5;entryDx=0;entryDy=0;" edge="1" parent="1" source="G6KSM5mu3qOo3AbOEJN1-2" target="G6KSM5mu3qOo3AbOEJN1-1">
          <mxGeometry relative="1" as="geometry">
            <mxPoint x="325" y="100" as="targetPoint" />
          </mxGeometry>
        </mxCell>
        <mxCell id="G6KSM5mu3qOo3AbOEJN1-11" style="edgeStyle=orthogonalEdgeStyle;curved=1;rounded=0;orthogonalLoop=1;jettySize=auto;html=1;exitX=0.15;exitY=0.95;exitDx=0;exitDy=0;exitPerimeter=0;" edge="1" parent="1" source="G6KSM5mu3qOo3AbOEJN1-2" target="G6KSM5mu3qOo3AbOEJN1-3">
          <mxGeometry relative="1" as="geometry" />
        </mxCell>
        <mxCell id="G6KSM5mu3qOo3AbOEJN1-20" style="edgeStyle=orthogonalEdgeStyle;curved=1;rounded=0;orthogonalLoop=1;jettySize=auto;html=1;entryX=0.75;entryY=1;entryDx=0;entryDy=0;strokeColor=#0000CC;fillColor=#0000FF;" edge="1" parent="1" source="G6KSM5mu3qOo3AbOEJN1-2" target="G6KSM5mu3qOo3AbOEJN1-17">
          <mxGeometry relative="1" as="geometry" />
        </mxCell>
        <mxCell id="G6KSM5mu3qOo3AbOEJN1-2" value="c5game&lt;br&gt;web" style="shape=cylinder;whiteSpace=wrap;html=1;boundedLbl=1;backgroundOutline=1;" vertex="1" parent="1">
          <mxGeometry x="950" y="-60" width="80" height="140" as="geometry" />
        </mxCell>
        <mxCell id="G6KSM5mu3qOo3AbOEJN1-12" style="edgeStyle=orthogonalEdgeStyle;curved=1;rounded=0;orthogonalLoop=1;jettySize=auto;html=1;exitX=0.85;exitY=0.05;exitDx=0;exitDy=0;exitPerimeter=0;" edge="1" parent="1" source="G6KSM5mu3qOo3AbOEJN1-3" target="G6KSM5mu3qOo3AbOEJN1-2">
          <mxGeometry relative="1" as="geometry" />
        </mxCell>
        <mxCell id="G6KSM5mu3qOo3AbOEJN1-23" style="edgeStyle=orthogonalEdgeStyle;curved=1;rounded=0;orthogonalLoop=1;jettySize=auto;html=1;exitX=0;exitY=0.7;exitDx=0;exitDy=0;entryX=1;entryY=0.25;entryDx=0;entryDy=0;strokeColor=#0000CC;fillColor=#0000FF;" edge="1" parent="1" source="G6KSM5mu3qOo3AbOEJN1-3" target="G6KSM5mu3qOo3AbOEJN1-21">
          <mxGeometry relative="1" as="geometry" />
        </mxCell>
        <mxCell id="G6KSM5mu3qOo3AbOEJN1-25" style="edgeStyle=orthogonalEdgeStyle;curved=1;rounded=0;orthogonalLoop=1;jettySize=auto;html=1;entryX=0.5;entryY=1;entryDx=0;entryDy=0;strokeColor=#0000CC;fillColor=#0000FF;" edge="1" parent="1" source="G6KSM5mu3qOo3AbOEJN1-3" target="G6KSM5mu3qOo3AbOEJN1-4">
          <mxGeometry relative="1" as="geometry" />
        </mxCell>
        <mxCell id="G6KSM5mu3qOo3AbOEJN1-3" value="c5game&lt;br&gt;app" style="shape=cylinder;whiteSpace=wrap;html=1;boundedLbl=1;backgroundOutline=1;" vertex="1" parent="1">
          <mxGeometry x="980" y="280" width="70" height="120" as="geometry" />
        </mxCell>
        <mxCell id="G6KSM5mu3qOo3AbOEJN1-24" style="edgeStyle=orthogonalEdgeStyle;curved=1;rounded=0;orthogonalLoop=1;jettySize=auto;html=1;entryX=1.014;entryY=0.25;entryDx=0;entryDy=0;entryPerimeter=0;strokeColor=#0000CC;fillColor=#0000FF;" edge="1" parent="1" source="G6KSM5mu3qOo3AbOEJN1-4" target="G6KSM5mu3qOo3AbOEJN1-3">
          <mxGeometry relative="1" as="geometry" />
        </mxCell>
        <mxCell id="G6KSM5mu3qOo3AbOEJN1-4" value="app_new" style="rounded=0;whiteSpace=wrap;html=1;" vertex="1" parent="1">
          <mxGeometry x="1300" y="290" width="120" height="60" as="geometry" />
        </mxCell>
        <mxCell id="G6KSM5mu3qOo3AbOEJN1-18" style="edgeStyle=orthogonalEdgeStyle;curved=1;rounded=0;orthogonalLoop=1;jettySize=auto;html=1;entryX=0.5;entryY=0;entryDx=0;entryDy=0;strokeColor=#0000CC;" edge="1" parent="1" source="G6KSM5mu3qOo3AbOEJN1-17" target="G6KSM5mu3qOo3AbOEJN1-2">
          <mxGeometry relative="1" as="geometry" />
        </mxCell>
        <mxCell id="G6KSM5mu3qOo3AbOEJN1-17" value="app_old" style="rounded=1;whiteSpace=wrap;html=1;" vertex="1" parent="1">
          <mxGeometry x="1180" y="-140" width="120" height="60" as="geometry" />
        </mxCell>
        <mxCell id="G6KSM5mu3qOo3AbOEJN1-22" style="edgeStyle=orthogonalEdgeStyle;curved=1;rounded=0;orthogonalLoop=1;jettySize=auto;html=1;entryX=0.5;entryY=1;entryDx=0;entryDy=0;strokeColor=#0000CC;fillColor=#0000FF;" edge="1" parent="1" source="G6KSM5mu3qOo3AbOEJN1-21" target="G6KSM5mu3qOo3AbOEJN1-3">
          <mxGeometry relative="1" as="geometry" />
        </mxCell>
        <mxCell id="G6KSM5mu3qOo3AbOEJN1-21" value="pc_zbt" style="rounded=1;whiteSpace=wrap;html=1;" vertex="1" parent="1">
          <mxGeometry x="617" y="270" width="120" height="60" as="geometry" />
        </mxCell>
      </root>
    </mxGraphModel>
  </diagram>
</mxfile>
